<svg width="14" height="14" viewBox="0 0 14 14" fill="none" xmlns="http://www.w3.org/2000/svg">
<g clip-path="url(#clip0_34_82)">
<path d="M13.976 5.31059C13.9239 5.15506 13.7892 5.04175 13.6271 5.01681L9.3234 4.35925L7.39512 0.251562C7.32293 0.098 7.1685 0 6.99896 0C6.82943 0 6.67521 0.098 6.60281 0.251562L4.67453 4.35925L0.37084 5.01703C0.208746 5.04175 0.0742148 5.15528 0.0219336 5.31081C-0.0301289 5.46612 0.00902734 5.63762 0.123652 5.75509L3.25046 8.96131L2.51153 13.4903C2.4844 13.6557 2.55418 13.8222 2.69134 13.9184C2.76659 13.9716 2.85475 13.9985 2.94312 13.9985C3.01575 13.9985 3.08881 13.9801 3.15487 13.9438L6.99875 11.8177L10.8426 13.9438C10.9087 13.9801 10.9817 13.9985 11.0544 13.9985C11.1427 13.9985 11.2311 13.9716 11.3062 13.9184C11.4433 13.8222 11.5131 13.6557 11.486 13.4903L10.747 8.96131L13.8738 5.75509C13.9887 5.63741 14.0281 5.46591 13.976 5.31059Z" fill="#F6CA2A"/>
</g>
<defs>
<clipPath id="clip0_34_82">
<rect width="14" height="14" fill="white"/>
</clipPath>
</defs>
</svg>
