<svg width="30" height="30" viewBox="0 0 30 30" fill="none" xmlns="http://www.w3.org/2000/svg">
<g clip-path="url(#clip0_61_2)">
<path d="M11.25 14.0625H5.72813C5.90236 12.9022 6.31668 11.791 6.94462 10.7998C7.57255 9.8087 8.4003 8.95942 9.375 8.30625L11.0531 7.18125L10.0219 5.625L8.34375 6.75C6.9312 7.69132 5.77285 8.96677 4.9715 10.4632C4.17015 11.9596 3.75057 13.6307 3.75 15.3281V21.5625C3.75 22.0598 3.94754 22.5367 4.29917 22.8883C4.65081 23.24 5.12772 23.4375 5.625 23.4375H11.25C11.7473 23.4375 12.2242 23.24 12.5758 22.8883C12.9275 22.5367 13.125 22.0598 13.125 21.5625V15.9375C13.125 15.4402 12.9275 14.9633 12.5758 14.6117C12.2242 14.26 11.7473 14.0625 11.25 14.0625Z" fill="#BD3028" fill-opacity="0.5"/>
<path d="M24.375 14.0625H18.8531C19.0274 12.9022 19.4417 11.791 20.0696 10.7998C20.6976 9.8087 21.5253 8.95942 22.5 8.30625L24.1781 7.18125L23.1563 5.625L21.4687 6.75C20.0562 7.69132 18.8979 8.96677 18.0965 10.4632C17.2951 11.9596 16.8756 13.6307 16.875 15.3281V21.5625C16.875 22.0598 17.0725 22.5367 17.4242 22.8883C17.7758 23.24 18.2527 23.4375 18.75 23.4375H24.375C24.8723 23.4375 25.3492 23.24 25.7008 22.8883C26.0525 22.5367 26.25 22.0598 26.25 21.5625V15.9375C26.25 15.4402 26.0525 14.9633 25.7008 14.6117C25.3492 14.26 24.8723 14.0625 24.375 14.0625Z" fill="#BD3028" fill-opacity="0.5"/>
</g>
<defs>
<clipPath id="clip0_61_2">
<rect width="30" height="30" fill="white"/>
</clipPath>
</defs>
</svg>
